<?xml version="1.0" encoding="UTF-8"?>
<svg version="1.1" xmlns="http://www.w3.org/2000/svg" width="831" height="824">
<path d="M0 0 C3.23733225 0.01073742 6.4741099 0.00001346 9.71142578 -0.01269531 C30.08774921 -0.02851117 50.08582155 1.64418344 70.17626953 5.01074219 C70.96582031 5.14112885 71.75537109 5.2715155 72.56884766 5.40585327 C86.15824477 7.66252278 99.49618106 10.42978177 112.73876953 14.26074219 C113.86653809 14.58413574 114.99430664 14.9075293 116.15625 15.24072266 C133.43683298 20.25449927 150.20527032 26.16113654 166.73876953 33.26074219 C167.4403418 33.56157715 168.14191406 33.86241211 168.86474609 34.17236328 C208.15836633 51.27028781 244.22640429 75.09736322 276.36376953 103.31542969 C278.54950877 105.23442512 280.75639014 107.12045928 282.99658203 108.97558594 C285.75480802 111.2741076 288.30904585 113.61663112 290.73876953 116.26074219 C290.73876953 116.92074219 290.73876953 117.58074219 290.73876953 118.26074219 C291.27501953 118.46699219 291.81126953 118.67324219 292.36376953 118.88574219 C295.65854962 120.79324645 298.33240581 123.30893603 300.73876953 126.26074219 C300.73876953 126.92074219 300.73876953 127.58074219 300.73876953 128.26074219 C301.39876953 128.26074219 302.05876953 128.26074219 302.73876953 128.26074219 C304.14892578 129.65917969 304.14892578 129.65917969 305.80126953 131.63574219 C308.5367004 134.85923749 311.32299158 138.01589501 314.17626953 141.13574219 C321.92647282 149.7383367 328.86967521 158.94827875 335.73876953 168.26074219 C336.86025391 169.76121094 336.86025391 169.76121094 338.00439453 171.29199219 C360.30495724 201.71527641 379.46541781 236.15405005 391.05859375 272.17919922 C391.80922952 274.476371 392.60160067 276.75671169 393.39892578 279.03808594 C400.43971591 299.35367881 405.99799351 320.08511998 409.73876953 341.26074219 C409.94711426 342.40470459 409.94711426 342.40470459 410.15966797 343.57177734 C414.13566417 365.62686214 415.09979578 387.76261947 414.98876953 410.13574219 C414.98533539 411.27505188 414.98190125 412.41436157 414.97836304 413.5881958 C414.80750243 461.98456758 407.28308986 509.92541871 389.73876953 555.26074219 C389.4488916 556.01274902 389.15901367 556.76475586 388.86035156 557.53955078 C384.55781658 568.65097302 379.95620976 579.54928842 374.73876953 590.26074219 C374.44566895 590.87272461 374.15256836 591.48470703 373.85058594 592.11523438 C366.01611038 608.46066476 357.1624248 624.41962707 346.73876953 639.26074219 C345.85038053 640.54955098 344.96238844 641.83863343 344.07470703 643.12792969 C337.11715928 653.16682722 329.75154747 662.84635104 322.17407227 672.42407227 C321.13709106 673.75103427 320.1441644 675.11282634 319.18041992 676.49389648 C318.70467529 677.07695557 318.22893066 677.66001465 317.73876953 678.26074219 C317.07876953 678.26074219 316.41876953 678.26074219 315.73876953 678.26074219 C315.42939453 678.87949219 315.12001953 679.49824219 314.80126953 680.13574219 C314.11376953 681.51074219 313.42626953 682.88574219 312.73876953 684.26074219 C312.07876953 684.26074219 311.41876953 684.26074219 310.73876953 684.26074219 C310.33464844 685.14052734 310.33464844 685.14052734 309.92236328 686.03808594 C308.74031766 688.25783497 307.45776569 689.93913587 305.80126953 691.82324219 C305.29724609 692.40203125 304.79322266 692.98082031 304.27392578 693.57714844 C301.18745374 696.96205798 301.18745374 696.96205798 299.73876953 698.26074219 C299.07876953 698.26074219 298.41876953 698.26074219 297.73876953 698.26074219 C297.73876953 698.92074219 297.73876953 699.58074219 297.73876953 700.26074219 C297.07876953 700.26074219 296.41876953 700.26074219 295.73876953 700.26074219 C295.73876953 700.92074219 295.73876953 701.58074219 295.73876953 702.26074219 C295.07876953 702.26074219 294.41876953 702.26074219 293.73876953 702.26074219 C293.40876953 703.25074219 293.07876953 704.24074219 292.73876953 705.26074219 C291.13720703 706.83886719 291.13720703 706.83886719 289.11376953 708.51074219 C286.42071153 710.78911692 283.86948042 713.0919633 281.42626953 715.63574219 C277.77536183 719.34433917 273.79338182 722.56352634 269.73876953 725.81933594 C267.18049672 727.90126368 264.68250764 730.03608129 262.19604492 732.20263672 C254.13871025 739.1820962 245.55997181 745.28865883 236.73876953 751.26074219 C235.97709473 751.77894531 235.21541992 752.29714844 234.43066406 752.83105469 C185.61977387 785.85287751 130.89102103 808.19635526 72.80259323 817.90677929 C70.73857702 818.2607752 68.68034228 818.6400076 66.62129211 819.02172852 C54.35690854 821.2168801 42.40520927 821.75054071 29.96533203 821.76464844 C27.90636 821.77433969 25.84738984 821.78443542 23.78842163 821.79490662 C19.49057254 821.81273255 15.19290289 821.8184428 10.89501953 821.81665039 C6.57269148 821.81640834 2.25132907 821.8369778 -2.07080078 821.87817383 C-78.30722484 822.59367336 -152.10619578 802.21907144 -216.26123047 760.26074219 C-217.35129395 759.54917969 -217.35129395 759.54917969 -218.46337891 758.82324219 C-245.12347668 741.36059393 -245.12347668 741.36059393 -253.26123047 734.26074219 C-253.26123047 733.60074219 -253.26123047 732.94074219 -253.26123047 732.26074219 C-253.81810547 732.01195312 -254.37498047 731.76316406 -254.94873047 731.50683594 C-263.37077752 726.9686045 -270.5676609 719.24813263 -277.53466797 712.74121094 C-279.27021706 711.16230883 -281.05520166 709.63497526 -282.89794922 708.18261719 C-285.13288545 706.36511533 -286.86965101 704.53831444 -288.69873047 702.32324219 C-290.79992188 699.85741886 -292.84945545 697.6508154 -295.38623047 695.63574219 C-298.52871241 693.03977885 -300.80875052 690.50667153 -303.26123047 687.26074219 C-303.26123047 686.60074219 -303.26123047 685.94074219 -303.26123047 685.26074219 C-303.92123047 685.26074219 -304.58123047 685.26074219 -305.26123047 685.26074219 C-306.96826172 683.41699219 -306.96826172 683.41699219 -309.07373047 680.76074219 C-309.86392578 679.76945313 -310.65412109 678.77816406 -311.46826172 677.75683594 C-311.90734863 677.20366699 -312.34643555 676.65049805 -312.79882812 676.08056641 C-314.4138743 674.07079109 -316.05947272 672.08875134 -317.71044922 670.10839844 C-318.29785889 669.39941406 -318.88526855 668.69042969 -319.49047852 667.95996094 C-320.65794421 666.55121149 -321.82989157 665.14616242 -323.0065918 663.74511719 C-323.54437256 663.0915625 -324.08215332 662.43800781 -324.63623047 661.76464844 C-325.11833984 661.18529541 -325.60044922 660.60594238 -326.09716797 660.0090332 C-327.36654479 658.10257192 -327.83920548 656.49814936 -328.26123047 654.26074219 C-328.92123047 654.26074219 -329.58123047 654.26074219 -330.26123047 654.26074219 C-331.91451308 652.0211034 -333.44469041 649.78556016 -334.94873047 647.44824219 C-335.62464233 646.41328613 -335.62464233 646.41328613 -336.31420898 645.35742188 C-337.22234555 643.96387684 -338.1272494 642.56821945 -339.02880859 641.17041016 C-340.04059485 639.6026225 -341.06345094 638.04198416 -342.08935547 636.48339844 C-356.18699086 614.82368193 -368.39313996 591.84756048 -377.85888672 567.80761719 C-378.6643389 565.77042894 -379.47903435 563.73672694 -380.31982422 561.71386719 C-382.88855278 555.53186483 -384.99229276 549.21610952 -387.06787109 542.85522461 C-388.26286667 539.2017579 -389.5008044 535.58419612 -390.87841797 531.99511719 C-391.92879999 529.15849228 -392.75462501 526.58625012 -393.32373047 523.63574219 C-394.02219421 520.05694702 -395.08997035 516.71401463 -396.26123047 513.26074219 C-400.09324936 500.9435386 -401.98100619 488.39976874 -403.84399414 475.65820312 C-404.22333892 473.12627006 -404.22333892 473.12627006 -405.26123047 470.26074219 C-410.28218792 439.00346971 -418.82578095 380.38984315 -404.26123047 351.26074219 C-404.03264549 349.20038835 -403.82979503 347.1371806 -403.63623047 345.07324219 C-402.67851465 336.36148982 -400.75563566 327.8587665 -398.82373047 319.32324219 C-398.67256775 318.64838776 -398.52140503 317.97353333 -398.36566162 317.27822876 C-396.87502841 310.650188 -395.36590282 304.06480061 -393.10327148 297.65063477 C-392.0124086 294.55453248 -391.00598406 291.43353156 -389.99169922 288.31152344 C-389.35963887 286.38511509 -388.72596033 284.45924461 -388.09204102 282.53344727 C-387.66634116 281.23631475 -387.24280431 279.93847018 -386.8215332 278.63989258 C-384.12045903 270.3213441 -381.11155189 262.26247574 -377.57446289 254.26098633 C-376.43485213 251.65740264 -375.38470733 249.04577706 -374.38623047 246.38574219 C-370.09804716 235.55896531 -364.34865879 225.25922622 -358.78759766 215.04516602 C-357.39116272 212.46644932 -356.19121514 210.05069619 -355.26123047 207.26074219 C-354.60123047 207.26074219 -353.94123047 207.26074219 -353.26123047 207.26074219 C-353.01630859 206.40738281 -352.77138672 205.55402344 -352.51904297 204.67480469 C-351.15638658 200.97616593 -349.3110191 197.88966296 -347.13623047 194.63574219 C-346.7351709 194.02529053 -346.33411133 193.41483887 -345.92089844 192.78588867 C-345.09788402 191.53545868 -344.27188602 190.28698719 -343.44287109 189.04052734 C-342.37800301 187.4366248 -341.32658283 185.82381344 -340.27685547 184.20996094 C-328.59494606 166.37332653 -315.49142177 149.57243274 -300.86669922 134.05761719 C-298.70807986 131.74041859 -296.6519614 129.38859441 -294.63623047 126.94824219 C-293.85248047 126.06136719 -293.06873047 125.17449219 -292.26123047 124.26074219 C-291.60123047 124.26074219 -290.94123047 124.26074219 -290.26123047 124.26074219 C-290.26123047 123.60074219 -290.26123047 122.94074219 -290.26123047 122.26074219 C-289.60123047 122.26074219 -288.94123047 122.26074219 -288.26123047 122.26074219 C-288.26123047 121.60074219 -288.26123047 120.94074219 -288.26123047 120.26074219 C-286.88623047 118.63574219 -286.88623047 118.63574219 -285.26123047 117.26074219 C-284.60123047 117.26074219 -283.94123047 117.26074219 -283.26123047 117.26074219 C-283.26123047 116.60074219 -283.26123047 115.94074219 -283.26123047 115.26074219 C-281.61669922 113.63964844 -281.61669922 113.63964844 -279.44873047 111.82324219 C-276.43659781 109.28734887 -276.43659781 109.28734887 -273.62451172 106.53808594 C-272.26123047 105.26074219 -272.26123047 105.26074219 -270.26123047 105.26074219 C-270.26123047 104.60074219 -270.26123047 103.94074219 -270.26123047 103.26074219 C-268.73285777 101.86474823 -267.13472948 100.5448657 -265.51123047 99.26074219 C-264.50189453 98.45507812 -263.49255859 97.64941406 -262.45263672 96.81933594 C-261.92299316 96.39765137 -261.39334961 95.9759668 -260.84765625 95.54150391 C-258.34036414 93.51730348 -255.90152727 91.41290622 -253.44873047 89.32324219 C-247.51114019 84.36757898 -241.31737532 79.86768376 -234.96972656 75.45458984 C-233.36622281 74.3341078 -231.776101 73.19454377 -230.18701172 72.05371094 C-192.72883668 45.43490537 -150.49573977 26.28266458 -106.26123047 14.26074219 C-105.34035645 14.00196289 -104.41948242 13.74318359 -103.47070312 13.4765625 C-90.35326169 9.80451663 -77.1266085 7.2215749 -63.69873047 5.01074219 C-62.95233307 4.88577362 -62.20593567 4.76080505 -61.43692017 4.63204956 C-41.02113746 1.24716724 -20.68541213 -0.081205 0 0 Z " fill="#D2D9DC" transform="translate(411.26123046875,2.7392578125)"/>
<path d="M0 0 C1.42460541 -0.00790054 1.42460541 -0.00790054 2.87799072 -0.01596069 C16.12667415 -0.07268892 29.09414915 0.68016621 42.25 2.25 C42.25 2.91 42.25 3.57 42.25 4.25 C43.136875 4.188125 44.02375 4.12625 44.9375 4.0625 C49.63002163 4.07186631 53.98319181 5.21881824 58.51953125 6.3359375 C61.16037449 6.98301323 63.79241934 7.59279908 66.44921875 8.1640625 C74.03049158 9.81639119 81.10128939 11.71446912 88.21484375 14.89453125 C91.75056226 16.47354582 95.33512484 17.89423503 98.9375 19.3125 C104.43782625 21.49504732 109.86590094 23.79409517 115.25 26.25 C115.25 26.91 115.25 27.57 115.25 28.25 C115.94351562 28.34410156 116.63703125 28.43820312 117.3515625 28.53515625 C127.53691497 31.04717714 137.37153634 39.1979273 145.97265625 45.05078125 C149.14519444 47.23826306 149.14519444 47.23826306 152.18359375 48.91796875 C152.86550781 49.35753906 153.54742188 49.79710937 154.25 50.25 C154.25 50.91 154.25 51.57 154.25 52.25 C154.806875 52.3325 155.36375 52.415 155.9375 52.5 C158.98677919 53.48895541 160.90189963 55.09757466 163.25 57.25 C163.25 57.91 163.25 58.57 163.25 59.25 C163.765625 59.476875 164.28125 59.70375 164.8125 59.9375 C170.29569375 62.88998894 175.09630977 66.59283216 179.25 71.25 C179.25 71.91 179.25 72.57 179.25 73.25 C180.0853125 73.62125 180.0853125 73.62125 180.9375 74 C183.70193405 75.49428867 185.93453468 77.12227511 188.25 79.25 C188.60169068 80.57860925 188.93770276 81.91158328 189.25 83.25 C190.57407669 83.93486725 191.90909241 84.59870203 193.25 85.25 C194.62482707 86.88260714 195.95647667 88.55225062 197.25 90.25 C197.848125 90.848125 198.44625 91.44625 199.0625 92.0625 C204.33911041 97.33911041 208.80586026 102.88463402 212.84375 109.15625 C214.09496323 111.01916748 215.40209287 112.68654548 216.875 114.375 C218.99037951 116.93572257 220.62278247 119.46824636 222.203125 122.3828125 C223.76153339 125.16236179 225.53472218 127.79928039 227.296875 130.453125 C228.25 132.25 228.25 132.25 228.25 135.25 C228.91 135.25 229.57 135.25 230.25 135.25 C240.25 153.46917808 240.25 153.46917808 240.25 159.25 C240.91 159.25 241.57 159.25 242.25 159.25 C243.58333333 162.58333333 244.91666667 165.91666667 246.25 169.25 C246.62125 170.1265625 246.9925 171.003125 247.375 171.90625 C248.34377556 174.50118454 248.40698364 176.50278633 248.25 179.25 C248.91 179.25 249.57 179.25 250.25 179.25 C250.58 181.89 250.91 184.53 251.25 187.25 C252.57 187.58 253.89 187.91 255.25 188.25 C247.67350404 195.54398255 238.91430092 201.34802345 230.25 207.25 C229.48107422 207.77400391 228.71214844 208.29800781 227.91992188 208.83789062 C179.11445293 241.84976328 124.39213373 264.18730442 66.3138237 273.8960371 C64.24980749 274.25003302 62.19157275 274.62926541 60.13252258 275.01098633 C47.86813901 277.20613791 35.91643974 277.73979852 23.4765625 277.75390625 C21.41759047 277.7635975 19.35862031 277.77369323 17.2996521 277.78416443 C13.001803 277.80199036 8.70413336 277.80770061 4.40625 277.8059082 C0.08392195 277.80566615 -4.23744046 277.82623561 -8.55957031 277.86743164 C-84.79599437 278.58293117 -158.59496532 258.20832925 -222.75 216.25 C-223.47670898 215.775625 -224.20341797 215.30125 -224.95214844 214.8125 C-236.81449805 207.04253454 -248.73898587 199.20535345 -259.75 190.25 C-253.42863777 164.49630201 -240.28099626 137.73721338 -224.75 116.25 C-224.09386719 115.33347656 -223.43773437 114.41695312 -222.76171875 113.47265625 C-221.44126202 111.64452877 -220.1120866 109.82266088 -218.7734375 108.0078125 C-217.34292068 106.05811197 -215.93340666 104.09291898 -214.5390625 102.1171875 C-213.82492188 101.10914063 -213.11078125 100.10109375 -212.375 99.0625 C-211.72789062 98.14082031 -211.08078125 97.21914063 -210.4140625 96.26953125 C-209.86492187 95.60308594 -209.31578125 94.93664062 -208.75 94.25 C-208.09 94.25 -207.43 94.25 -206.75 94.25 C-206.75 93.59 -206.75 92.93 -206.75 92.25 C-206.09 92.25 -205.43 92.25 -204.75 92.25 C-204.523125 91.71375 -204.29625 91.1775 -204.0625 90.625 C-202.29429911 87.42539839 -200.21329797 84.95962777 -197.75 82.25 C-197.09 82.25 -196.43 82.25 -195.75 82.25 C-195.75 81.59 -195.75 80.93 -195.75 80.25 C-195.09 80.25 -194.43 80.25 -193.75 80.25 C-193.37875 79.38375 -193.37875 79.38375 -193 78.5 C-191.56700012 75.92060021 -189.96575324 74.18878408 -187.75 72.25 C-187.09 72.25 -186.43 72.25 -185.75 72.25 C-185.75 71.59 -185.75 70.93 -185.75 70.25 C-184.20111498 68.83293498 -182.58238466 67.49190504 -180.9375 66.1875 C-179.44476563 64.99640625 -179.44476563 64.99640625 -177.921875 63.78125 C-177.13973633 63.16056641 -177.13973633 63.16056641 -176.34179688 62.52734375 C-174.75772376 61.25619796 -173.19651007 59.96169476 -171.640625 58.65625 C-170.17882812 57.43421875 -170.17882812 57.43421875 -168.6875 56.1875 C-167.78902344 55.43339844 -166.89054687 54.67929687 -165.96484375 53.90234375 C-163.75 52.25 -163.75 52.25 -161.75 52.25 C-161.75 51.59 -161.75 50.93 -161.75 50.25 C-159.77845334 48.82285858 -157.81612217 47.52790014 -155.75 46.25 C-155.12883301 45.85554687 -154.50766602 45.46109375 -153.86767578 45.0546875 C-151.85484124 43.77739863 -149.83457542 42.51260149 -147.8125 41.25 C-146.79639648 40.61191406 -146.79639648 40.61191406 -145.75976562 39.9609375 C-124.45314317 26.64174494 -124.45314317 26.64174494 -113.76171875 22.98828125 C-111.24998099 22.06649788 -108.86168387 20.94424169 -106.4375 19.8125 C-101.79818997 17.67276282 -97.11499376 15.84685162 -92.296875 14.15234375 C-90.11169934 13.37814808 -87.9652868 12.54594598 -85.8125 11.6875 C-80.59641996 9.71674286 -75.16442808 8.542667 -69.75 7.25 C-67.8628125 6.755 -67.8628125 6.755 -65.9375 6.25 C-64.5431295 5.91059947 -63.14706043 5.57815236 -61.75 5.25 C-60.27466797 4.89421875 -60.27466797 4.89421875 -58.76953125 4.53125 C-39.39396903 0.23034829 -19.75690405 0.05573032 0 0 Z " fill="#AFB8BA" transform="translate(417.75,546.75)"/>
<path d="M0 0 C0.71137115 -0.00067474 1.42274231 -0.00134949 2.15567017 -0.00204468 C12.55765262 0.01360972 22.18287616 0.6133798 32.3125 3.25 C34.07702965 3.65712066 35.84275619 4.05907383 37.609375 4.45703125 C50.72544757 7.45056063 62.36024539 10.95933968 74.3125 17.25 C75.24449219 17.73726562 76.17648437 18.22453125 77.13671875 18.7265625 C82.83919115 21.76896575 88.31740053 25.07129778 93.73828125 28.58984375 C96.60386493 30.43790606 99.51910873 32.19043595 102.4609375 33.9140625 C105.01968558 35.76024782 107.08957781 38.01380664 109.3125 40.25 C111.12710666 41.77260099 112.96076672 43.27277457 114.8125 44.75 C118.54979854 47.73144041 121.97138049 50.83013357 125.3125 54.25 C126.17875 55.075 127.045 55.9 127.9375 56.75 C130.22546037 59.15837934 131.62259916 61.4109666 133.3125 64.25 C134.21221629 65.32689119 135.13097708 66.38800056 136.0625 67.4375 C141.53799602 73.72063168 146.68459739 79.92960889 148.3125 88.25 C148.9725 88.25 149.6325 88.25 150.3125 88.25 C150.3125 89.57 150.3125 90.89 150.3125 92.25 C150.9725 92.25 151.6325 92.25 152.3125 92.25 C155.61449356 98.1935884 157.26768663 103.54119838 158.3125 110.25 C158.9725 110.25 159.6325 110.25 160.3125 110.25 C163.18214374 116.50172386 164.82387226 121.34647445 164.3125 128.25 C164.9725 128.25 165.6325 128.25 166.3125 128.25 C172.0416666 152.69444416 173.87656431 178.41695446 169.3125 203.25 C169.09464844 204.44109375 168.87679688 205.6321875 168.65234375 206.859375 C167.05993572 214.83011681 164.83550847 222.52898612 162.3125 230.25 C161.90837891 231.53777344 161.90837891 231.53777344 161.49609375 232.8515625 C160.1026064 237.21441817 158.47013159 241.19365261 156.3125 245.25 C155.59970259 246.64355899 154.89157631 248.03951454 154.1875 249.4375 C153.85492187 250.09105469 153.52234375 250.74460937 153.1796875 251.41796875 C152.19383707 253.40589153 152.19383707 253.40589153 151.3125 256.25 C150.6525 256.58 149.9925 256.91 149.3125 257.25 C148.59090576 258.89363134 147.91898579 260.56050386 147.3125 262.25 C146.6525 262.25 145.9925 262.25 145.3125 262.25 C145.02375 262.971875 144.735 263.69375 144.4375 264.4375 C144.06625 265.365625 143.695 266.29375 143.3125 267.25 C142.879375 268.5184375 142.879375 268.5184375 142.4375 269.8125 C141.13589276 272.63264903 139.51398375 274.06838523 137.3125 276.25 C136.04829341 277.82201341 134.79962324 279.40658526 133.5625 281 C129.28772096 286.27723979 124.6632197 291.12364057 119.875 295.9375 C119.1644043 296.65711914 118.45380859 297.37673828 117.72167969 298.11816406 C116.71669434 299.11734863 116.71669434 299.11734863 115.69140625 300.13671875 C115.0888501 300.73701904 114.48629395 301.33731934 113.86547852 301.95581055 C112.3125 303.25 112.3125 303.25 110.3125 303.25 C110.3125 303.91 110.3125 304.57 110.3125 305.25 C106.85096154 308.25 106.85096154 308.25 104.3125 308.25 C104.3125 308.91 104.3125 309.57 104.3125 310.25 C102.9925 310.58 101.6725 310.91 100.3125 311.25 C100.3125 311.91 100.3125 312.57 100.3125 313.25 C95.92788462 316.25 95.92788462 316.25 93.3125 316.25 C93.3125 316.91 93.3125 317.57 93.3125 318.25 C92.508125 318.641875 91.70375 319.03375 90.875 319.4375 C87.26963636 321.27180782 83.76920685 323.24179656 80.265625 325.26171875 C78.3125 326.25 78.3125 326.25 76.3125 326.25 C76.3125 326.91 76.3125 327.57 76.3125 328.25 C72.52933452 329.7693575 68.74302324 331.28057947 64.95385742 332.78491211 C63.67013061 333.29580426 62.38722401 333.80876315 61.10522461 334.32397461 C24.44166621 349.04961969 -23.00019161 351.21776874 -60.16845703 336.25097656 C-62.35728933 335.28109664 -64.52477048 334.27653424 -66.6875 333.25 C-67.69039063 332.8065625 -68.69328125 332.363125 -69.7265625 331.90625 C-74.89957443 329.59324164 -79.79908516 327.10926151 -84.6875 324.25 C-85.93543535 323.6622627 -87.1855685 323.07917639 -88.4375 322.5 C-93.076739 320.23474658 -97.06731256 317.16242764 -101.171875 314.0546875 C-103.30228537 312.52634963 -105.30771646 311.32868693 -107.6875 310.25 C-107.6875 309.59 -107.6875 308.93 -107.6875 308.25 C-108.3475 308.25 -109.0075 308.25 -109.6875 308.25 C-109.6875 307.59 -109.6875 306.93 -109.6875 306.25 C-110.409375 306.023125 -111.13125 305.79625 -111.875 305.5625 C-115.25182417 303.98664872 -117.24517039 302.04123384 -119.6875 299.25 C-119.6875 298.59 -119.6875 297.93 -119.6875 297.25 C-120.27660156 296.99863281 -120.86570312 296.74726563 -121.47265625 296.48828125 C-123.96394202 295.09544599 -125.31050414 293.6291428 -127.125 291.4375 C-129.20655325 288.96565552 -131.28405844 286.60288472 -133.625 284.375 C-135.6875 282.25 -135.6875 282.25 -135.6875 280.25 C-136.3475 280.25 -137.0075 280.25 -137.6875 280.25 C-138.285625 279.156875 -138.88375 278.06375 -139.5 276.9375 C-140.63108326 274.94917469 -141.56702419 273.37047581 -143.1875 271.75 C-145.16546702 269.77203298 -146.36815347 267.45618622 -147.70703125 265.01953125 C-148.54622374 263.5049727 -149.45423743 262.02889965 -150.375 260.5625 C-151.59457957 258.41371694 -152.24039032 256.66439225 -152.6875 254.25 C-153.3475 254.25 -154.0075 254.25 -154.6875 254.25 C-155.3475 251.61 -156.0075 248.97 -156.6875 246.25 C-157.3475 246.25 -158.0075 246.25 -158.6875 246.25 C-160.13231798 242.31514764 -161.56697227 238.37665996 -163 234.4375 C-163.40412109 233.33728516 -163.80824219 232.23707031 -164.22460938 231.10351562 C-174.80739851 201.9363163 -178.62121056 166.63800544 -170.6875 136.25 C-170.47818848 135.42048828 -170.26887695 134.59097656 -170.05322266 133.73632812 C-163.84213473 109.52495354 -154.10901597 87.04550808 -138.6875 67.25 C-138.26484863 66.7024707 -137.84219727 66.15494141 -137.40673828 65.59082031 C-132.27492669 58.98241181 -132.27492669 58.98241181 -129.6875 56.25 C-129.0275 56.25 -128.3675 56.25 -127.6875 56.25 C-127.3575 55.26 -127.0275 54.27 -126.6875 53.25 C-126.0275 53.25 -125.3675 53.25 -124.6875 53.25 C-124.6875 52.59 -124.6875 51.93 -124.6875 51.25 C-124.0275 51.25 -123.3675 51.25 -122.6875 51.25 C-122.6875 50.59 -122.6875 49.93 -122.6875 49.25 C-122.0275 49.25 -121.3675 49.25 -120.6875 49.25 C-120.3575 48.26 -120.0275 47.27 -119.6875 46.25 C-119.0275 46.25 -118.3675 46.25 -117.6875 46.25 C-117.3575 45.26 -117.0275 44.27 -116.6875 43.25 C-114.125 42.0625 -114.125 42.0625 -111.6875 41.25 C-111.6875 40.59 -111.6875 39.93 -111.6875 39.25 C-110.0078125 37.7421875 -110.0078125 37.7421875 -107.8125 36.125 C-107.09320313 35.58617187 -106.37390625 35.04734375 -105.6328125 34.4921875 C-103.6875 33.25 -103.6875 33.25 -101.6875 33.25 C-101.6875 32.59 -101.6875 31.93 -101.6875 31.25 C-99.7075 30.59 -97.7275 29.93 -95.6875 29.25 C-95.6875 28.59 -95.6875 27.93 -95.6875 27.25 C-86.85907234 22.16562322 -78.1031089 17.18531641 -68.6875 13.25 C-67.81351562 12.88132813 -66.93953125 12.51265625 -66.0390625 12.1328125 C-57.39331863 8.57585481 -48.5047536 6.40310121 -39.4375 4.1875 C-38.36886719 3.91873047 -37.30023438 3.64996094 -36.19921875 3.37304688 C-24.15070247 0.43777651 -12.35615782 0.01061016 0 0 Z " fill="#AFB9BB" transform="translate(415.6875,149.75)"/>
<path d="M0 0 C4.77609498 1.64178265 8.79382904 4.26546702 13 7 C12.67 7.99 12.34 8.98 12 10 C9.99426318 8.71656721 7.99563881 7.4239631 6 6.125 C5.42765625 5.76019531 4.8553125 5.39539063 4.265625 5.01953125 C2.80818084 4.06525233 1.39962775 3.03722413 0 2 C0 1.34 0 0.68 0 0 Z " fill="#A8AFB2" transform="translate(177,749)"/>
<path d="M0 0 C0.33 1.32 0.66 2.64 1 4 C-0.65 4.33 -2.3 4.66 -4 5 C-4.33 4.01 -4.66 3.02 -5 2 C-5.66 1.67 -6.32 1.34 -7 1 C-4.50935112 0.31292445 -2.62113708 0 0 0 Z " fill="#ACB1B3" transform="translate(280,798)"/>
<path d="M0 0 C0.33 0.99 0.66 1.98 1 3 C-1.25 5.0625 -1.25 5.0625 -4 7 C-5.32 6.67 -6.64 6.34 -8 6 C-5.36 4.02 -2.72 2.04 0 0 Z " fill="#A8B2B5" transform="translate(648,750)"/>
<path d="M0 0 C2.97 0.495 2.97 0.495 6 1 C6.33 2.32 6.66 3.64 7 5 C2.25 3.125 2.25 3.125 0 2 C0 1.34 0 0.68 0 0 Z " fill="#A8AFB2" transform="translate(201,765)"/>
<path d="M0 0 C-0.33 0.99 -0.66 1.98 -1 3 C-2.98 3.33 -4.96 3.66 -7 4 C-3.375 0 -3.375 0 0 0 Z " fill="#A8B4B3" transform="translate(592,784)"/>
</svg>
