<?xml version="1.0" encoding="UTF-8"?>
<svg version="1.1" xmlns="http://www.w3.org/2000/svg" width="50" height="50">
<path d="M0 0 C2.27116406 -0.15254087 3.9213855 -0.08506939 6.09375 0.609375 C8.59375 3.609375 8.59375 3.609375 10.09375 6.609375 C11.33125 6.361875 12.56875 6.114375 13.84375 5.859375 C16.96787318 5.48758769 17.81888127 5.45518035 20.65625 7.046875 C22.8022632 10.87237678 21.94318681 13.36219097 21.09375 17.609375 C22.08375 18.104375 23.07375 18.599375 24.09375 19.109375 C27.09375 21.609375 27.09375 21.609375 27.703125 23.515625 C27.85566587 25.78678906 27.78819439 27.4370105 27.09375 29.609375 C24.09375 32.109375 24.09375 32.109375 21.09375 33.609375 C21.34125 34.846875 21.58875 36.084375 21.84375 37.359375 C22.21553731 40.48349818 22.24794465 41.33450627 20.65625 44.171875 C16.83074822 46.3178882 14.34093403 45.45881181 10.09375 44.609375 C9.59875 45.599375 9.10375 46.589375 8.59375 47.609375 C6.09375 50.609375 6.09375 50.609375 4.1875 51.21875 C1.91633594 51.37129087 0.2661145 51.30381939 -1.90625 50.609375 C-4.40625 47.609375 -4.40625 47.609375 -5.90625 44.609375 C-7.14375 44.856875 -8.38125 45.104375 -9.65625 45.359375 C-12.78037318 45.73116231 -13.63138127 45.76356965 -16.46875 44.171875 C-18.6147632 40.34637322 -17.75568681 37.85655903 -16.90625 33.609375 C-17.89625 33.114375 -18.88625 32.619375 -19.90625 32.109375 C-22.90625 29.609375 -22.90625 29.609375 -23.515625 27.703125 C-23.66816587 25.43196094 -23.60069439 23.7817395 -22.90625 21.609375 C-19.90625 19.109375 -19.90625 19.109375 -16.90625 17.609375 C-17.2775 15.753125 -17.2775 15.753125 -17.65625 13.859375 C-18.02803731 10.73525182 -18.06044465 9.88424373 -16.46875 7.046875 C-12.64324822 4.9008618 -10.15343403 5.75993819 -5.90625 6.609375 C-5.41125 5.619375 -4.91625 4.629375 -4.40625 3.609375 C-1.90625 0.609375 -1.90625 0.609375 0 0 Z M0.09375 4.609375 C-0.56625 6.259375 -1.22625 7.909375 -1.90625 9.609375 C-8.53125 10.734375 -8.53125 10.734375 -11.90625 9.609375 C-14.39287146 13.33930719 -13.70091113 14.37118233 -12.90625 18.609375 C-13.23625 19.599375 -13.56625 20.589375 -13.90625 21.609375 C-16.46875 22.796875 -16.46875 22.796875 -18.90625 23.609375 C-18.90625 24.929375 -18.90625 26.249375 -18.90625 27.609375 C-16.43125 28.599375 -16.43125 28.599375 -13.90625 29.609375 C-12.78125 36.234375 -12.78125 36.234375 -13.90625 39.609375 C-10.17631781 42.09599646 -9.14444267 41.40403613 -4.90625 40.609375 C-3.91625 40.939375 -2.92625 41.269375 -1.90625 41.609375 C-0.71875 44.171875 -0.71875 44.171875 0.09375 46.609375 C1.41375 46.609375 2.73375 46.609375 4.09375 46.609375 C4.75375 44.959375 5.41375 43.309375 6.09375 41.609375 C12.71875 40.484375 12.71875 40.484375 16.09375 41.609375 C18.51683097 38.71109577 18.51683097 38.71109577 17.53125 35.109375 C17.09375 31.609375 17.09375 31.609375 18.34375 29.734375 C20.09375 28.609375 20.09375 28.609375 23.09375 27.609375 C23.09375 26.289375 23.09375 24.969375 23.09375 23.609375 C20.61875 22.619375 20.61875 22.619375 18.09375 21.609375 C16.96875 14.984375 16.96875 14.984375 18.09375 11.609375 C14.36381781 9.12275354 13.33194267 9.81471387 9.09375 10.609375 C8.10375 10.279375 7.11375 9.949375 6.09375 9.609375 C4.90625 7.046875 4.90625 7.046875 4.09375 4.609375 C2.77375 4.609375 1.45375 4.609375 0.09375 4.609375 Z " fill="#EDEDED" transform="translate(22.90625,-0.609375)"/>
<path d="M0 0 C3.51038651 2.59463351 4.77811815 4.23728114 6 8.4375 C6 12.61810309 5.40415469 14.58765141 3 18 C-0.41234859 20.40415469 -2.38189691 21 -6.5625 21 C-10.76271886 19.77811815 -12.40536649 18.51038651 -15 15 C-16.17584751 10.95802419 -16.24644076 8.7538188 -14.9375 4.75 C-10.98328477 -0.86243452 -6.46883193 -1.88184202 0 0 Z M-9.875 5.125 C-11.52854531 7.88090884 -11.39365568 9.85075452 -11 13 C-10 15 -10 15 -8 16 C-4.85075452 16.39365568 -2.88090884 16.52854531 -0.125 14.875 C1.52854531 12.11909116 1.39365568 10.14924548 1 7 C0 5 0 5 -2 4 C-5.14924548 3.60634432 -7.11909116 3.47145469 -9.875 5.125 Z " fill="#EDEDED" transform="translate(30,15)"/>
</svg>
